<svg width="1280" height="560" viewBox="0 0 1280 560" fill="none" xmlns="http://www.w3.org/2000/svg" role="img" aria-label="taskflow 0.2 — author in JSON or TypeScript, verify before model spend, compile to FlowIR, run isolated, then resume, replay, or recompute the stale frontier across Pi, Codex, Claude Code, OpenCode, and Grok Build.">
  <defs>
    <linearGradient id="bg" x1="80" y1="20" x2="1200" y2="560" gradientUnits="userSpaceOnUse">
      <stop stop-color="#10131D"/>
      <stop offset="0.52" stop-color="#111422"/>
      <stop offset="1" stop-color="#0C1718"/>
    </linearGradient>
    <linearGradient id="brand" x1="472" y1="112" x2="795" y2="182" gradientUnits="userSpaceOnUse">
      <stop stop-color="#A8A7FF"/>
      <stop offset="0.55" stop-color="#7472FF"/>
      <stop offset="1" stop-color="#45D4A7"/>
    </linearGradient>
    <linearGradient id="flow" x1="113" y1="371" x2="1168" y2="371" gradientUnits="userSpaceOnUse">
      <stop stop-color="#7775FF"/>
      <stop offset="0.72" stop-color="#8B89FF"/>
      <stop offset="1" stop-color="#34C99A"/>
    </linearGradient>
    <filter id="shadow" x="-20%" y="-30%" width="140%" height="170%">
      <feDropShadow dx="0" dy="10" stdDeviation="18" flood-color="#000000" flood-opacity="0.3"/>
    </filter>
    <pattern id="grid" width="32" height="32" patternUnits="userSpaceOnUse">
      <path d="M32 0H0V32" stroke="#FFFFFF" stroke-opacity="0.035"/>
    </pattern>
  </defs>

  <rect width="1280" height="560" rx="30" fill="url(#bg)"/>
  <rect x="0.75" y="0.75" width="1278.5" height="558.5" rx="29.25" stroke="#FFFFFF" stroke-opacity="0.11" stroke-width="1.5"/>
  <rect width="1280" height="560" rx="30" fill="url(#grid)"/>
  <circle cx="1075" cy="62" r="210" fill="#35C99A" fill-opacity="0.045"/>
  <circle cx="203" cy="505" r="240" fill="#7775FF" fill-opacity="0.06"/>

  <g transform="translate(54 38)">
    <rect width="1172" height="34" rx="17" fill="#FFFFFF" fill-opacity="0.045" stroke="#FFFFFF" stroke-opacity="0.1"/>
    <circle cx="21" cy="17" r="4" fill="#35C99A"/>
    <text x="37" y="21.5" font-family="SFMono-Regular,Consolas,Liberation Mono,monospace" font-size="11.5" letter-spacing="1.6" fill="#A9ADBA">TASKFLOW 0.2</text>
    <text x="1138" y="21.5" text-anchor="end" font-family="SFMono-Regular,Consolas,Liberation Mono,monospace" font-size="11.5" letter-spacing="1.25" fill="#858A99">PI  ·  CODEX  ·  CLAUDE  ·  OPENCODE  ·  GROK</text>
  </g>

  <g transform="translate(392 103)">
    <path d="M8 28C25 28 28 8 46 8M8 28C25 28 28 48 46 48M46 8C64 8 67 28 84 28M46 48C64 48 67 28 84 28" stroke="url(#brand)" stroke-width="4" stroke-linecap="round"/>
    <circle cx="8" cy="28" r="8" fill="#7775FF"/>
    <circle cx="46" cy="8" r="7" fill="#AAA9FF"/>
    <circle cx="46" cy="48" r="7" fill="#AAA9FF"/>
    <circle cx="84" cy="28" r="8" fill="#35C99A"/>
  </g>
  <text x="506" y="156" font-family="Inter,Helvetica Neue,Arial,sans-serif" font-size="70" font-weight="760" letter-spacing="-3" fill="#F7F8FB">task<tspan fill="url(#brand)">flow</tspan></text>
  <rect x="799" y="108" width="59" height="27" rx="13.5" fill="#7775FF" fill-opacity="0.16" stroke="#8F8DFF" stroke-opacity="0.45"/>
  <text x="828.5" y="126" text-anchor="middle" font-family="SFMono-Regular,Consolas,monospace" font-size="11" font-weight="700" fill="#B9B8FF">0.2</text>

  <text x="640" y="199" text-anchor="middle" font-family="Inter,Helvetica Neue,Arial,sans-serif" font-size="22" font-weight="600" fill="#F3F4F8">The compiler &amp; runtime for multi-agent work.</text>
  <text x="640" y="228" text-anchor="middle" font-family="Inter,Helvetica Neue,Arial,sans-serif" font-size="14" fill="#9DA2B0">Declare the graph once. Verify before spend. Resume, replay, and recompute precisely.</text>

  <path d="M232 371H1048" stroke="url(#flow)" stroke-width="2.5" stroke-opacity="0.62"/>
  <g fill="#7775FF">
    <path d="M269 371l-8-5v10z"/><path d="M484 371l-8-5v10z"/><path d="M699 371l-8-5v10z"/>
  </g>
  <path d="M914 371l-8-5v10z" fill="#35C99A"/>

  <g filter="url(#shadow)">
    <rect x="72" y="282" width="175" height="178" rx="17" fill="#171B28" stroke="#FFFFFF" stroke-opacity="0.12"/>
    <rect x="287" y="282" width="175" height="178" rx="17" fill="#171B28" stroke="#8E8CFF" stroke-opacity="0.34"/>
    <rect x="502" y="282" width="175" height="178" rx="17" fill="#171B28" stroke="#8E8CFF" stroke-opacity="0.34"/>
    <rect x="717" y="282" width="175" height="178" rx="17" fill="#171B28" stroke="#8E8CFF" stroke-opacity="0.34"/>
    <rect x="932" y="282" width="276" height="178" rx="17" fill="#13201F" stroke="#35C99A" stroke-opacity="0.42"/>
  </g>

  <g font-family="SFMono-Regular,Consolas,Liberation Mono,monospace">
    <text x="92" y="307" font-size="10" font-weight="700" letter-spacing="1.4" fill="#858A99">01  AUTHOR</text>
    <text x="307" y="307" font-size="10" font-weight="700" letter-spacing="1.4" fill="#A5A4FF">02  VERIFY</text>
    <text x="522" y="307" font-size="10" font-weight="700" letter-spacing="1.4" fill="#A5A4FF">03  COMPILE</text>
    <text x="737" y="307" font-size="10" font-weight="700" letter-spacing="1.4" fill="#A5A4FF">04  RUN</text>
    <text x="952" y="307" font-size="10" font-weight="700" letter-spacing="1.4" fill="#52D7AF">05  REUSE</text>

    <rect x="92" y="330" width="62" height="24" rx="12" fill="#7775FF" fill-opacity="0.14"/>
    <rect x="160" y="330" width="63" height="24" rx="12" fill="#7775FF" fill-opacity="0.14"/>
    <text x="123" y="346" text-anchor="middle" font-size="10.5" fill="#C3C2FF">JSON</text>
    <text x="191.5" y="346" text-anchor="middle" font-size="10.5" fill="#C3C2FF">.tf.ts</text>
    <text x="92" y="385" font-size="12.5" fill="#F1F2F6">graph = data</text>
    <text x="92" y="409" font-size="10.5" fill="#8F94A3">version · diff · share</text>

    <circle cx="333" cy="349" r="18" fill="#7775FF" fill-opacity="0.14"/>
    <path d="M324 349l6 6 12-14" stroke="#A7A6FF" stroke-width="3" stroke-linecap="round" stroke-linejoin="round"/>
    <text x="358" y="346" font-size="11" fill="#EDEDF8">cycles      0</text>
    <text x="358" y="365" font-size="11" fill="#EDEDF8">dead ends   0</text>
    <text x="307" y="402" font-size="11" font-weight="700" fill="#A7A6FF">0 model calls</text>
    <text x="307" y="425" font-size="10.5" fill="#8F94A3">fail before spend</text>

    <text x="522" y="347" font-size="12" fill="#F1F2F6">Taskflow JSON</text>
    <text x="522" y="372" font-size="10.5" fill="#8F94A3">↓ canonicalize</text>
    <text x="522" y="397" font-size="12" font-weight="700" fill="#A7A6FF">FlowIR</text>
    <text x="522" y="421" font-size="10.5" fill="#8F94A3">ir:7ec3…d291</text>

    <circle cx="758" cy="363" r="7" fill="#7775FF"/>
    <circle cx="805" cy="337" r="6" fill="#A5A4FF"/>
    <circle cx="805" cy="389" r="6" fill="#A5A4FF"/>
    <circle cx="852" cy="363" r="7" fill="#35C99A"/>
    <path d="M765 363C783 363 785 337 799 337M765 363C783 363 785 389 799 389M811 337C829 337 831 363 845 363M811 389C829 389 831 363 845 363" stroke="#8F8DFF" stroke-width="2"/>
    <text x="737" y="421" font-size="10.5" fill="#8F94A3">isolated transcripts</text>

    <rect x="952" y="329" width="72" height="25" rx="12.5" fill="#35C99A" fill-opacity="0.13"/>
    <rect x="1031" y="329" width="72" height="25" rx="12.5" fill="#35C99A" fill-opacity="0.13"/>
    <rect x="1110" y="329" width="78" height="25" rx="12.5" fill="#35C99A" fill-opacity="0.13"/>
    <text x="988" y="346" text-anchor="middle" font-size="9.5" fill="#71E0BD">RESUME</text>
    <text x="1067" y="346" text-anchor="middle" font-size="9.5" fill="#71E0BD">REPLAY</text>
    <text x="1149" y="346" text-anchor="middle" font-size="9.5" fill="#71E0BD">RECOMPUTE</text>
    <text x="952" y="387" font-size="12" fill="#F1F7F5">changed input</text>
    <text x="1169" y="387" text-anchor="end" font-size="12" font-weight="700" fill="#52D7AF">1 file</text>
    <text x="952" y="410" font-size="12" fill="#F1F7F5">stale frontier</text>
    <text x="1169" y="410" text-anchor="end" font-size="12" font-weight="700" fill="#52D7AF">2 nodes</text>
    <text x="952" y="433" font-size="10.5" fill="#8EA8A0">unchanged work stays reused</text>
  </g>

  <g transform="translate(72 492)">
    <rect width="1136" height="34" rx="17" fill="#FFFFFF" fill-opacity="0.045" stroke="#FFFFFF" stroke-opacity="0.09"/>
    <text x="568" y="22" text-anchor="middle" font-family="SFMono-Regular,Consolas,Liberation Mono,monospace" font-size="11" letter-spacing="0.75" fill="#A7ABB8">VERIFY BEFORE SPEND   ·   KEEP TRANSCRIPTS ISOLATED   ·   RETURN ONLY THE RESULT</text>
  </g>
</svg>
