<svg width="1280" height="640" viewBox="0 0 1280 640" fill="none" xmlns="http://www.w3.org/2000/svg" role="img" aria-label="taskflow 0.2 — the compiler and runtime for multi-agent work. Verify before spend, run isolated, resume, replay, and recompute precisely across five coding-agent hosts.">
  <defs>
    <linearGradient id="bg" x1="80" y1="20" x2="1200" y2="640" gradientUnits="userSpaceOnUse"><stop stop-color="#10131D"/><stop offset="0.52" stop-color="#111422"/><stop offset="1" stop-color="#0C1718"/></linearGradient>
    <linearGradient id="brand" x1="488" y1="122" x2="806" y2="190" gradientUnits="userSpaceOnUse"><stop stop-color="#A8A7FF"/><stop offset="0.55" stop-color="#7472FF"/><stop offset="1" stop-color="#45D4A7"/></linearGradient>
    <pattern id="grid" width="32" height="32" patternUnits="userSpaceOnUse"><path d="M32 0H0V32" stroke="#FFFFFF" stroke-opacity="0.035"/></pattern>
    <filter id="shadow" x="-20%" y="-30%" width="140%" height="170%"><feDropShadow dx="0" dy="10" stdDeviation="18" flood-color="#000000" flood-opacity="0.3"/></filter>
  </defs>
  <rect width="1280" height="640" fill="url(#bg)"/><rect width="1280" height="640" fill="url(#grid)"/>
  <circle cx="1098" cy="64" r="235" fill="#35C99A" fill-opacity="0.05"/><circle cx="177" cy="618" r="260" fill="#7775FF" fill-opacity="0.07"/>
  <g transform="translate(56 38)"><rect width="1168" height="34" rx="17" fill="#FFFFFF" fill-opacity="0.045" stroke="#FFFFFF" stroke-opacity="0.1"/><circle cx="21" cy="17" r="4" fill="#35C99A"/><text x="37" y="21.5" font-family="SFMono-Regular,Consolas,monospace" font-size="11.5" letter-spacing="1.6" fill="#A9ADBA">TASKFLOW 0.2</text><text x="1134" y="21.5" text-anchor="end" font-family="SFMono-Regular,Consolas,monospace" font-size="11.5" letter-spacing="1.2" fill="#858A99">PI · CODEX · CLAUDE · OPENCODE · GROK</text></g>
  <g transform="translate(406 108)"><path d="M8 28C25 28 28 8 46 8M8 28C25 28 28 48 46 48M46 8C64 8 67 28 84 28M46 48C64 48 67 28 84 28" stroke="url(#brand)" stroke-width="4" stroke-linecap="round"/><circle cx="8" cy="28" r="8" fill="#7775FF"/><circle cx="46" cy="8" r="7" fill="#AAA9FF"/><circle cx="46" cy="48" r="7" fill="#AAA9FF"/><circle cx="84" cy="28" r="8" fill="#35C99A"/></g>
  <text x="520" y="160" font-family="Inter,Helvetica Neue,Arial,sans-serif" font-size="70" font-weight="760" letter-spacing="-3" fill="#F7F8FB">task<tspan fill="url(#brand)">flow</tspan></text>
  <text x="640" y="219" text-anchor="middle" font-family="Inter,Helvetica Neue,Arial,sans-serif" font-size="24" font-weight="620" fill="#F3F4F8">The compiler &amp; runtime for multi-agent work.</text>
  <text x="640" y="252" text-anchor="middle" font-family="Inter,Helvetica Neue,Arial,sans-serif" font-size="14.5" fill="#9DA2B0">Declare once. Verify before spend. Resume, replay, and recompute precisely.</text>
  <path d="M151 402H1128" stroke="#7775FF" stroke-opacity="0.56" stroke-width="2.5"/>
  <g font-family="SFMono-Regular,Consolas,Liberation Mono,monospace" filter="url(#shadow)">
    <g><rect x="77" y="330" width="180" height="144" rx="17" fill="#171B28" stroke="#FFFFFF" stroke-opacity="0.13"/><text x="99" y="358" font-size="10" font-weight="700" letter-spacing="1.2" fill="#9BA0AE">01 AUTHOR</text><text x="99" y="397" font-size="14" fill="#F1F2F6">JSON  ·  .tf.ts</text><text x="99" y="429" font-size="11" fill="#8F94A3">graph = data</text></g>
    <g><rect x="306" y="330" width="180" height="144" rx="17" fill="#171B28" stroke="#8E8CFF" stroke-opacity="0.38"/><text x="328" y="358" font-size="10" font-weight="700" letter-spacing="1.2" fill="#AAA9FF">02 VERIFY</text><text x="328" y="397" font-size="13" fill="#F1F2F6">cycles     0</text><text x="328" y="421" font-size="13" fill="#F1F2F6">dead ends  0</text><text x="328" y="448" font-size="10.5" font-weight="700" fill="#AAA9FF">0 model calls</text></g>
    <g><rect x="535" y="330" width="180" height="144" rx="17" fill="#171B28" stroke="#8E8CFF" stroke-opacity="0.38"/><text x="557" y="358" font-size="10" font-weight="700" letter-spacing="1.2" fill="#AAA9FF">03 COMPILE</text><text x="557" y="397" font-size="13" fill="#F1F2F6">Taskflow JSON</text><text x="557" y="422" font-size="10.5" fill="#8F94A3">↓ canonicalize</text><text x="557" y="448" font-size="13" font-weight="700" fill="#AAA9FF">FlowIR</text></g>
    <g><rect x="764" y="330" width="180" height="144" rx="17" fill="#171B28" stroke="#8E8CFF" stroke-opacity="0.38"/><text x="786" y="358" font-size="10" font-weight="700" letter-spacing="1.2" fill="#AAA9FF">04 RUN</text><circle cx="806" cy="414" r="7" fill="#7775FF"/><circle cx="852" cy="390" r="6" fill="#AAA9FF"/><circle cx="852" cy="438" r="6" fill="#AAA9FF"/><circle cx="900" cy="414" r="7" fill="#35C99A"/><path d="M813 414C830 414 834 390 846 390M813 414C830 414 834 438 846 438M858 390C876 390 880 414 893 414M858 438C876 438 880 414 893 414" stroke="#8F8DFF" stroke-width="2"/></g>
    <g><rect x="993" y="330" width="210" height="144" rx="17" fill="#13201F" stroke="#35C99A" stroke-opacity="0.45"/><text x="1015" y="358" font-size="10" font-weight="700" letter-spacing="1.2" fill="#52D7AF">05 REUSE</text><text x="1015" y="397" font-size="11.5" fill="#EAF4F1">resume · replay</text><text x="1015" y="423" font-size="11.5" fill="#EAF4F1">minimal recompute</text><text x="1015" y="450" font-size="10.5" fill="#52D7AF">only what changed</text></g>
  </g>
  <rect x="174" y="535" width="932" height="38" rx="19" fill="#FFFFFF" fill-opacity="0.05" stroke="#FFFFFF" stroke-opacity="0.09"/>
  <text x="640" y="559" text-anchor="middle" font-family="SFMono-Regular,Consolas,monospace" font-size="11.5" letter-spacing="1" fill="#A7ABB8">VERIFY FIRST · KEEP TRANSCRIPTS ISOLATED · RETURN ONLY THE RESULT</text>
</svg>
